<svg width="877" height="243" viewBox="0 0 877 243" fill="none" xmlns="http://www.w3.org/2000/svg">
<path d="M293 198C285.333 198 278.233 197 271.7 195C265.167 193 259.3 190.267 254.1 186.8L263.8 160C268.267 162.467 272.5 164.367 276.5 165.7C280.567 167.033 284.533 167.7 288.4 167.7C295 167.7 300.133 165.933 303.8 162.4C307.467 158.867 309.3 153.233 309.3 145.5V55H342.5V152.3C342.5 161.367 340.567 169.333 336.7 176.2C332.833 183.067 327.2 188.433 319.8 192.3C312.467 196.1 303.533 198 293 198ZM372.459 195V93H405.259V195H372.459ZM388.859 77.9C383.593 77.9 378.993 76.2667 375.059 73C371.193 69.6667 369.259 65.2333 369.259 59.7C369.259 54.0333 371.193 49.5667 375.059 46.3C378.993 43.0333 383.593 41.4 388.859 41.4C394.193 41.4 398.793 43.0333 402.659 46.3C406.526 49.5667 408.459 54.0333 408.459 59.7C408.459 65.2333 406.526 69.6667 402.659 73C398.793 76.2667 394.193 77.9 388.859 77.9ZM432.616 195V93H465.416V103.8C469.216 99 473.716 95.5 478.916 93.3C484.116 91.1 489.582 90 495.316 90C504.916 90 512.816 91.9 519.016 95.7C525.216 99.4333 529.782 104.3 532.716 110.3C535.716 116.233 537.216 122.533 537.216 129.2V195H504.416V139.5C504.416 133.367 502.782 128.533 499.516 125C496.316 121.467 491.582 119.7 485.316 119.7C481.316 119.7 477.816 120.567 474.816 122.3C471.882 124.033 469.582 126.5 467.916 129.7C466.249 132.833 465.416 136.433 465.416 140.5V195H432.616ZM592.175 198C585.375 198 579.275 196.7 573.875 194.1C568.475 191.433 564.208 187.667 561.075 182.8C557.942 177.867 556.375 171.967 556.375 165.1C556.375 159.233 557.808 154.033 560.675 149.5C563.608 144.967 568.008 141.233 573.875 138.3C579.742 135.367 587.108 133.4 595.975 132.4C604.908 131.333 615.342 131.333 627.275 132.4L627.575 152.8C621.242 151.667 615.508 151.1 610.375 151.1C605.308 151.033 600.975 151.467 597.375 152.4C593.842 153.267 591.108 154.633 589.175 156.5C587.242 158.367 586.275 160.667 586.275 163.4C586.275 166.933 587.608 169.633 590.275 171.5C593.008 173.367 596.642 174.3 601.175 174.3C605.108 174.3 608.642 173.6 611.775 172.2C614.975 170.8 617.508 168.767 619.375 166.1C621.308 163.367 622.275 160.033 622.275 156.1V132.8C622.275 129.133 621.508 125.9 619.975 123.1C618.442 120.3 616.008 118.133 612.675 116.6C609.408 115 605.042 114.2 599.575 114.2C594.308 114.2 589.075 115 583.875 116.6C578.675 118.133 574.008 120.467 569.875 123.6L561.475 101.1C568.075 96.9667 575.142 93.9333 582.675 92C590.208 90 597.608 89 604.875 89C614.475 89 622.908 90.5333 630.175 93.6C637.508 96.6667 643.242 101.4 647.375 107.8C651.508 114.2 653.575 122.4 653.575 132.4V195H625.275V184.2C622.008 188.6 617.508 192 611.775 194.4C606.042 196.8 599.508 198 592.175 198ZM752.791 237V172.1L760.191 179.6C755.524 185.667 750.057 190.267 743.791 193.4C737.524 196.467 730.491 198 722.691 198C712.691 198 703.824 195.633 696.091 190.9C688.357 186.1 682.291 179.633 677.891 171.5C673.557 163.3 671.391 154.133 671.391 144C671.391 135.867 672.657 128.5 675.191 121.9C677.724 115.233 681.257 109.533 685.791 104.8C690.391 100.067 695.757 96.4333 701.891 93.9C708.091 91.3 714.824 90 722.091 90C728.557 90 734.424 90.9333 739.691 92.8C744.957 94.6 749.424 97.1667 753.091 100.5C756.824 103.833 759.691 107.667 761.691 112L757.191 119.4V93H785.491V237H752.791ZM728.191 169.8C732.924 169.8 737.157 168.767 740.891 166.7C744.624 164.567 747.524 161.567 749.591 157.7C751.724 153.833 752.791 149.267 752.791 144C752.791 138.667 751.724 134.1 749.591 130.3C747.457 126.433 744.524 123.467 740.791 121.4C737.057 119.267 732.857 118.2 728.191 118.2C723.524 118.2 719.324 119.267 715.591 121.4C711.857 123.467 708.891 126.433 706.691 130.3C704.557 134.1 703.491 138.667 703.491 144C703.491 149.267 704.557 153.833 706.691 157.7C708.824 161.567 711.757 164.567 715.491 166.7C719.224 168.767 723.457 169.8 728.191 169.8ZM827.894 198C822.427 198 817.66 196.267 813.594 192.8C809.594 189.333 807.594 184.633 807.594 178.7C807.594 174.7 808.494 171.267 810.294 168.4C812.16 165.533 814.627 163.3 817.694 161.7C820.827 160.1 824.227 159.3 827.894 159.3C833.427 159.3 838.194 161.033 842.194 164.5C846.194 167.967 848.194 172.7 848.194 178.7C848.194 182.7 847.26 186.133 845.394 189C843.527 191.867 841.06 194.067 837.994 195.6C834.927 197.2 831.56 198 827.894 198Z" fill="black"/>
<rect x="27.0271" y="28.915" width="193.05" height="193.05" rx="36" fill="#4483FA"/>
<rect y="40.498" width="193.05" height="193.05" rx="36" fill="black"/>
</svg>
